<?xml version="1.0" encoding="utf-8"?>
<!-- Generator: Adobe Illustrator 27.5.0, SVG Export Plug-In . SVG Version: 6.00 Build 0)  -->
<svg version="1.1" xmlns="http://www.w3.org/2000/svg" xmlns:xlink="http://www.w3.org/1999/xlink" x="0px" y="0px"
	 viewBox="0 0 750 500" style="enable-background:new 0 0 750 500;" xml:space="preserve">
<g id="BACKGROUND">
	<g>
		<g>
			<g>
				<rect style="fill:#FFFFFF;" width="750" height="500"/>
			</g>
		</g>
		<path style="fill:#DFF1F4;" d="M574.712,229.686c-0.094,0-0.188,0-0.282,0c-10.116,0.027-18.885-6.753-21.416-16.546
			C532.547,133.93,460.606,75.42,375,75.42S217.453,133.93,196.986,213.14c-2.531,9.794-11.301,16.573-21.416,16.546
			c-0.094,0-0.188,0-0.282,0c-59.444,0-107.537,48.602-106.707,108.237c0.792,56.929,46.843,103.623,103.756,105.159
			c35.324,0.953,66.902-15.265,86.999-40.911c31.592,25.603,71.833,40.951,115.665,40.951c43.832,0,84.073-15.348,115.665-40.951
			c20.096,25.646,51.675,41.864,86.999,40.911c56.913-1.536,102.964-48.23,103.756-105.159
			C682.249,278.289,634.157,229.686,574.712,229.686z"/>
	</g>
</g>
<g id="OBJECTS">
	<rect x="59.639" y="448.695" style="fill:#3E5C70;" width="630.722" height="3.161"/>
	<g>
		<path style="fill:#83A9FF;" d="M219.664,55.63h64.7c5.982,0,10.831,4.849,10.831,10.831v53.804
			c0,5.982-4.849,10.831-10.831,10.831h-3.228v8.038l-8.038-8.038h-53.434c-5.982,0-10.831-4.849-10.831-10.831V66.461
			C208.834,60.479,213.683,55.63,219.664,55.63z"/>
		<path style="fill:#FFFFFF;" d="M234.856,96.451c-2.512,2.481-5.234,5.912-3.93,8.17c0.656,1.136,2.079,1.538,3.764,1.538
			c1.665,0,3.585-0.392,5.276-0.856c1.794-0.493,3.753-1.183,5.805-2.028c1.018,7.565,3.138,13.521,6.243,13.521
			c3.105,0,5.225-5.956,6.243-13.521c2.052,0.845,4.011,1.535,5.805,2.028c1.692,0.465,3.612,0.856,5.276,0.856
			c1.685,0,3.108-0.402,3.764-1.538c1.304-2.258-1.418-5.689-3.93-8.17c-1.321-1.305-2.895-2.654-4.649-4.005
			c1.754-1.352,3.328-2.701,4.649-4.005c2.512-2.481,5.234-5.912,3.93-8.17c-1.304-2.258-5.635-1.618-9.04-0.682
			c-1.794,0.493-3.753,1.183-5.805,2.028c-1.018-7.566-3.138-13.522-6.243-13.522c-3.105,0-5.225,5.956-6.243,13.522
			c-2.051-0.845-4.011-1.535-5.805-2.028c-3.403-0.936-7.736-1.577-9.04,0.682c-1.304,2.258,1.418,5.689,3.93,8.17
			c1.322,1.305,2.895,2.654,4.649,4.005C237.752,93.797,236.178,95.146,234.856,96.451z M245.574,83.235
			c-0.189,1.706-0.325,3.473-0.407,5.258c-1.533,0.976-2.999,1.971-4.363,2.971c-1.839-1.398-3.485-2.794-4.847-4.139
			c-3.426-3.382-4.144-5.457-3.674-6.27c0.255-0.442,1.007-0.767,2.385-0.767c1.159,0,2.76,0.23,4.882,0.813
			C241.402,81.608,243.439,82.338,245.574,83.235z M246.696,95.509c-0.033-0.991-0.053-2.01-0.053-3.064s0.019-2.072,0.053-3.063
			c0.86-0.536,1.733-1.068,2.633-1.588c0.898-0.518,1.793-1.008,2.685-1.483c0.892,0.476,1.787,0.965,2.685,1.483
			c0.9,0.519,1.773,1.051,2.633,1.588c0.033,0.991,0.052,2.01,0.052,3.063s-0.019,2.072-0.052,3.064
			c-0.86,0.536-1.733,1.068-2.633,1.588c-0.898,0.518-1.793,1.008-2.685,1.483c-0.892-0.476-1.788-0.965-2.685-1.483
			C248.429,96.577,247.556,96.045,246.696,95.509z M248.545,98.454c0.596,0.344,1.192,0.675,1.786,1.001
			c-1.105,0.558-2.196,1.078-3.268,1.558c-0.118-1.144-0.215-2.347-0.285-3.609C247.361,97.758,247.947,98.109,248.545,98.454z
			 M255.484,98.454c0.598-0.345,1.185-0.697,1.766-1.05c-0.07,1.262-0.167,2.465-0.285,3.609c-1.071-0.48-2.163-1-3.268-1.558
			C254.292,99.13,254.887,98.799,255.484,98.454z M258.953,92.445c0-0.681-0.009-1.364-0.025-2.047
			c1.033,0.677,2.028,1.36,2.977,2.047c-0.949,0.687-1.944,1.37-2.977,2.047C258.944,93.809,258.953,93.126,258.953,92.445z
			 M255.484,86.437c-0.596-0.344-1.192-0.675-1.786-1.001c1.105-0.558,2.196-1.078,3.268-1.558c0.118,1.144,0.215,2.347,0.285,3.609
			C256.668,87.133,256.082,86.782,255.484,86.437z M248.545,86.437c-0.598,0.345-1.185,0.697-1.766,1.05
			c0.07-1.262,0.167-2.465,0.285-3.609c1.071,0.48,2.163,1,3.268,1.558C249.737,85.761,249.141,86.092,248.545,86.437z
			 M245.076,92.445c0,0.681,0.009,1.364,0.025,2.047c-1.033-0.677-2.028-1.36-2.977-2.047c0.949-0.687,1.944-1.37,2.977-2.047
			C245.085,91.082,245.076,91.765,245.076,92.445z M256.775,82.244c-1.551,0.682-3.147,1.455-4.761,2.295
			c-1.614-0.84-3.21-1.613-4.761-2.295c1.021-7.969,3.125-12.582,4.761-12.582C253.65,69.663,255.754,74.275,256.775,82.244z
			 M263.224,91.464c-1.364-1.001-2.83-1.995-4.363-2.971c-0.081-1.785-0.217-3.552-0.407-5.258c2.136-0.896,4.173-1.626,6.023-2.135
			c2.12-0.583,3.723-0.813,4.882-0.813c1.377,0,2.129,0.325,2.384,0.767c0.47,0.814-0.248,2.889-3.673,6.27
			C266.709,88.67,265.063,90.066,263.224,91.464z M258.454,101.656c0.189-1.705,0.325-3.472,0.406-5.257
			c1.533-0.976,2.999-1.971,4.363-2.972c1.839,1.398,3.485,2.794,4.847,4.14c3.425,3.382,4.143,5.457,3.673,6.27
			s-2.627,1.229-7.267-0.046C262.627,103.282,260.59,102.552,258.454,101.656z M247.254,102.647
			c1.551-0.682,3.147-1.455,4.761-2.295c1.614,0.84,3.21,1.613,4.761,2.295c-1.021,7.969-3.125,12.581-4.761,12.581
			C250.379,115.228,248.274,110.616,247.254,102.647z M235.958,97.567c1.362-1.345,3.008-2.741,4.847-4.14
			c1.364,1.001,2.83,1.995,4.363,2.972c0.081,1.785,0.217,3.552,0.407,5.257c-2.136,0.896-4.173,1.626-6.023,2.135
			c-4.643,1.276-6.798,0.86-7.267,0.046C231.814,103.023,232.532,100.948,235.958,97.567z"/>
		<circle style="fill:#0E5EA0;" cx="264.72" cy="80.657" r="2.815"/>
		<circle style="fill:#0E5EA0;" cx="239.534" cy="104.603" r="2.815"/>
	</g>
	<g>
		<g>
			<g>
				<path style="fill:none;stroke:#25576B;stroke-miterlimit:10;" d="M226.673,389.446c0,0-22.019-12.633-14.323-43.428"/>
				<path style="fill:#EDCB3A;" d="M209.565,343.193c-0.683,1.86,0.271,3.922,2.132,4.604c1.86,0.683,3.921-0.271,4.604-2.132
					c0.683-1.86-0.271-3.922-2.132-4.604C212.31,340.379,210.248,341.333,209.565,343.193z"/>
			</g>
			<g>
				<path style="fill:none;stroke:#25576B;stroke-miterlimit:10;" d="M224.836,388.053c0,0-25.342-1.498-32.174-32.495"/>
				<path style="fill:#EDCB3A;" d="M188.91,354.269c0.217,1.97,1.99,3.39,3.96,3.172s3.39-1.99,3.172-3.96
					c-0.217-1.969-1.99-3.39-3.96-3.172C190.113,350.527,188.693,352.3,188.91,354.269z"/>
			</g>
		</g>
		<g>
			<g>
				<path style="fill:#266C82;" d="M475.927,404.224c0.299,0,0.59,0.033,0.887,0.045c3.651-16.375,18.257-28.619,35.732-28.619
					c17.475,0,32.082,12.244,35.732,28.619c0.297-0.012,0.588-0.045,0.887-0.045c12.334,0,22.332,9.999,22.332,22.332
					c0,12.334-9.999,22.332-22.332,22.332h-73.239c-12.334,0-22.333-9.998-22.333-22.332
					C453.594,414.223,463.593,404.224,475.927,404.224z"/>
				<g>
					<path style="fill:#25576B;" d="M623.032,393.172L623.032,393.172L623.032,393.172c-4.765,35.434-37.352,60.295-72.786,55.53v0
						C555.011,413.269,587.599,388.407,623.032,393.172z"/>
					<path style="fill:#2D7E91;" d="M584.001,364.269L584.001,364.269L584.001,364.269c14.412,32.719-0.428,70.926-33.147,85.338v0
						C536.442,416.889,551.283,378.681,584.001,364.269z"/>
				</g>
			</g>
			<g>
				<path style="fill:#266C82;" d="M274.073,404.224c-0.299,0-0.59,0.033-0.887,0.045c-3.651-16.375-18.257-28.619-35.732-28.619
					c-17.475,0-32.081,12.244-35.732,28.619c-0.297-0.012-0.588-0.045-0.887-0.045c-12.334,0-22.332,9.999-22.332,22.332
					c0,12.334,9.999,22.332,22.332,22.332h73.239c12.334,0,22.333-9.998,22.333-22.332
					C296.405,414.223,286.407,404.224,274.073,404.224z"/>
				<g>
					<path style="fill:#25576B;" d="M126.968,393.172L126.968,393.172L126.968,393.172c4.765,35.434,37.352,60.295,72.786,55.53v0
						C194.988,413.269,162.401,388.407,126.968,393.172z"/>
					<path style="fill:#2D7E91;" d="M165.999,364.269L165.999,364.269L165.999,364.269c-14.412,32.719,0.428,70.926,33.147,85.338v0
						C213.558,416.889,198.717,378.681,165.999,364.269z"/>
				</g>
			</g>
		</g>
	</g>
	<g>
		<g>
			<g>
				
					<line style="fill:none;stroke:#1D3244;stroke-width:14;stroke-miterlimit:10;" x1="355.482" y1="277.693" x2="355.482" y2="448.913"/>
				<g>
					<path style="fill:#0E5EA0;" d="M365.977,422.336l-0.097,11.076c0,0,13.832,0.196,17.257,15.71l-38.018-0.034l0.607-26.93
						L365.977,422.336z"/>
					<path style="fill:#FFFFFF;" d="M355.896,434.018c0.046,2.403-1.426,4.381-3.288,4.416c-1.862,0.036-3.409-1.884-3.454-4.287
						c-0.046-2.403,1.426-4.381,3.288-4.416C354.304,429.695,355.85,431.614,355.896,434.018z"/>
				</g>
			</g>
			<path style="fill:#1D3244;" d="M350.429,248.792H336.07c-10.591,0-19.257,8.666-19.257,19.257v0
				c0,10.592,8.666,19.257,19.257,19.257h14.359c10.592,0,19.257-8.666,19.257-19.257v0
				C369.686,257.457,361.021,248.792,350.429,248.792z"/>
			<g>
				
					<line style="fill:none;stroke:#1D3244;stroke-width:14;stroke-miterlimit:10;" x1="331.97" y1="277.693" x2="331.97" y2="448.913"/>
				<g>
					<path style="fill:#0E5EA0;" d="M321.654,422.336l0.097,11.076c0,0-13.832,0.196-17.257,15.71l38.018-0.034l-0.607-26.93
						L321.654,422.336z"/>
					<path style="fill:#FFFFFF;" d="M331.735,434.018c-0.046,2.403,1.426,4.381,3.288,4.416c1.862,0.036,3.408-1.884,3.454-4.287
						c0.046-2.403-1.426-4.381-3.288-4.416C333.327,429.695,331.781,431.614,331.735,434.018z"/>
				</g>
			</g>
			<g>
				<path style="fill:none;stroke:#FFB692;stroke-width:9;stroke-miterlimit:10;" d="M363.543,197.308
					c11.452,79.337,89.711,45.18,89.711,45.18"/>
				<g>
					<g>
						<path style="fill:#FFB692;" d="M446.905,244.301c-4.95-6.453,5.578-11.844,5.578-11.844l3.447-7.507
							c0,0,6.552,3.361,2.091,9.24c0,0,7.261-1.153,11.122-5.068c4.713-4.779,7.813,10.744,4.682,16.797
							c-1.701,3.287-7.028,1.892-11.104,4.203C457.041,253.343,447.533,253.759,446.905,244.301z"/>
					</g>
					<g>
						<path style="fill:#D88D87;" d="M461.502,241.948l0.097,0.592c0,0,7.93-0.317,13.48-3.96c-0.01-0.363-0.025-0.727-0.05-1.089
							C472.938,239.16,468.721,241.578,461.502,241.948z"/>
						<path style="fill:#D88D87;" d="M462.538,246.272c0,0,7.154-0.21,12.03-2.38c0.09-0.354,0.167-0.724,0.233-1.103
							c-2.059,0.967-6.372,2.606-12.382,2.851L462.538,246.272z"/>
						<path style="fill:#D88D87;" d="M460.519,237.965c0,0,8.095-0.076,13.615-5.563c-0.148-0.487-0.312-0.945-0.49-1.368
							c-2.093,2.208-6.256,5.494-13.166,6.52L460.519,237.965z"/>
					</g>
				</g>
				<path style="fill:#83A9FF;" d="M377.744,214.024l-2.118-19.355c-0.86-5.402-5.936-9.084-11.337-8.224l0,0
					c-5.402,0.86-9.084,5.936-8.224,11.337l2.118,19.355L377.744,214.024z"/>
			</g>
			<g>
				<g>
					<g>
						<path style="fill:#83A9FF;" d="M372.27,262.32c-5.317,2.589-15.121,6.513-28.001,6.901
							c-13.198,0.397-23.429-3.105-28.909-5.43c2.003-8.733,4.005-17.466,6.007-26.199l-4.688-36.398
							c-0.242-9.316,4.19-16.988,13.529-17.229l18.199-0.47c12.04-0.311,18.299,3.893,18.611,15.904l-2.074,38.339L372.27,262.32z"
							/>
					</g>
					<path style="fill:none;stroke:#A83B5D;stroke-miterlimit:10;" d="M316.043,161.402"/>
					<path style="fill:#FFB692;" d="M328.933,186.488c-0.314,4.733,5.86,8.995,13.791,9.519c7.931,0.524,14.615-2.888,14.929-7.621
						c0.314-4.733-5.86-8.995-13.791-9.519C335.931,178.343,329.247,181.755,328.933,186.488z"/>
					<g>
						<g>
							<path style="fill:#FFFFFF;" d="M341.595,219.504c-4.856,0-9.42-1.891-12.854-5.324l-0.879-0.879l0.879-0.879
								c3.433-3.433,7.998-5.324,12.853-5.324c4.856,0,9.42,1.891,12.854,5.324l0.879,0.879l-0.879,0.879
								C351.015,217.613,346.45,219.504,341.595,219.504z M331.454,213.301c2.83,2.405,6.385,3.716,10.141,3.716
								c3.756,0,7.31-1.311,10.141-3.716C345.904,208.355,337.284,208.356,331.454,213.301z"/>
						</g>
						<g>
							
								<rect x="354.491" y="212.324" transform="matrix(0.6619 -0.7496 0.7496 0.6619 -41.0533 339.4026)" style="fill:#FFFFFF;" width="2.488" height="5.779"/>
						</g>
						<g>
							
								<rect x="352.845" y="210.294" transform="matrix(0.7495 -0.662 0.662 0.7495 -50.924 288.5047)" style="fill:#FFFFFF;" width="5.779" height="2.488"/>
						</g>
						<g>
							<g>
								<polygon style="fill:#FFFFFF;" points="338.195,223.344 333.73,223.344 333.73,220.856 335.708,220.856 335.708,217.944 
									338.195,217.944 								"/>
							</g>
							<g>
								<polygon style="fill:#FFFFFF;" points="348.412,223.344 343.947,223.344 343.947,220.856 345.925,220.856 345.925,217.944 
									348.412,217.944 								"/>
							</g>
						</g>
					</g>
				</g>
				<g>
					<path style="fill:#54321A;" d="M317.374,182.849h51.41V132.39c0-12.38-10.036-22.417-22.417-22.417h-6.577
						c-12.38,0-22.417,10.036-22.417,22.417V182.849z"/>
					
						<rect x="360.547" y="144.313" transform="matrix(-1 -1.224647e-16 1.224647e-16 -1 724.5791 327.1618)" style="fill:#875330;" width="3.486" height="38.537"/>
					
						<rect x="322.14" y="144.313" transform="matrix(-1 -1.224647e-16 1.224647e-16 -1 647.7663 327.1618)" style="fill:#875330;" width="3.486" height="38.537"/>
					<path style="fill:#D88D87;" d="M335.841,119.607h14.476c0.348,0,0.63-0.281,0.63-0.629l0,0c0-0.347-0.282-0.628-0.63-0.628
						h-14.476c-0.348,0-0.63,0.281-0.63,0.628l0,0C335.211,119.325,335.493,119.607,335.841,119.607z"/>
					<path style="fill:#D88D87;" d="M320.011,152.762h46.135c1.878,0,3.4-1.522,3.4-3.4v-0.978c0-1.878-1.522-3.4-3.4-3.4h-46.135
						c-1.878,0-3.4,1.522-3.4,3.4v0.978C316.611,151.239,318.133,152.762,320.011,152.762z"/>
					<path style="fill:#AA635F;" d="M367.506,149.105v-0.467c0-0.895-0.725-1.62-1.62-1.62h-45.613c-0.895,0-1.62,0.725-1.62,1.62
						v0.466c0,0.895,0.725,1.62,1.62,1.62h45.614C366.78,150.725,367.506,150,367.506,149.105z"/>
					<path style="fill:#FFB692;" d="M343.079,143.438L343.079,143.438c6.671,0,12.079,5.395,12.079,12.049v32.617H331v-32.617
						C331,148.833,336.408,143.438,343.079,143.438z"/>
					<path style="fill:#D88D87;" d="M355.158,148.15v20.567c0,6.655-5.408,12.049-12.079,12.049l0,0
						c-6.671,0-12.079-5.395-12.079-12.049V148.15"/>
					<path style="fill:#FFB692;" d="M343.079,175.799L343.079,175.799c4.993,0,19.723-5.901,19.723-17.892l2.041-22.562
						c0-11.496-9.342-20.815-20.866-20.815h-1.797c-11.524,0-20.866,9.319-20.866,20.815l2.041,22.562
						C323.355,169.898,335.976,175.799,343.079,175.799z"/>
					<g>
						<path style="fill:#252538;" d="M350.052,157.008c-2.27,0.222-5.48,0.382-8.64,0.021c-2.079-0.237-3.104,2.584-1.57,4.387
							c1.632,1.917,4.037,3.488,7.405,2.927c2.76-0.46,4.299-1.614,5.141-2.895C353.579,159.635,352.076,156.811,350.052,157.008z"
							/>
						<path style="fill:#FF9292;" d="M347.248,164.344c-3.368,0.561-5.773-1.01-7.405-2.927c-0.23-0.271-0.396-0.565-0.516-0.867
							c1.033-0.828,2.537-1.443,4.745-1.527c3.41-0.13,5.579,1.734,6.936,3.844c0.003,0.004,0.004,0.009,0.007,0.013
							C350.124,163.535,348.91,164.067,347.248,164.344z"/>
						<path style="fill:#FFABAB;" d="M348.126,161.255c-0.18,0.638-1.449,0.869-2.833,0.517c-1.385-0.353-2.361-1.156-2.181-1.794
							c0.18-0.638,1.449-0.869,2.834-0.517C347.33,159.813,348.307,160.617,348.126,161.255z"/>
						<path style="fill:#FFFFFF;" d="M350.052,157.008c-2.27,0.222-5.48,0.382-8.64,0.021c-1.276-0.146-2.153,0.863-2.286,2.08
							c2.077,1.067,4.969,1.617,8.119,1.384c2.02-0.149,3.886-0.603,5.467-1.267C352.395,157.96,351.328,156.884,350.052,157.008z"
							/>
					</g>
					<g>
						<path style="fill:#D88D87;" d="M353.335,143.006h4.809c1.095,0,1.982,0.885,1.982,1.977c0,1.092-0.887,1.977-1.982,1.977
							h-4.809c-1.095,0-1.982-0.885-1.982-1.977C351.353,143.891,352.24,143.006,353.335,143.006z"/>
						<path style="fill:#D88D87;" d="M331.722,143.006h4.809c1.095,0,1.982,0.885,1.982,1.977c0,1.092-0.887,1.977-1.982,1.977
							h-4.809c-1.095,0-1.982-0.885-1.982-1.977C329.74,143.891,330.627,143.006,331.722,143.006z"/>
					</g>
					<g>
						<path style="fill:#252538;" d="M355.645,144.883c1.407,0,2.547,1.138,2.547,2.541c0,1.403-1.141,2.541-2.547,2.541
							s-2.547-1.138-2.547-2.541C353.098,146.02,354.238,144.883,355.645,144.883z"/>
						<path style="fill:#252538;" d="M336.345,144.883c1.407,0,2.547,1.138,2.547,2.541c0,1.403-1.14,2.541-2.547,2.541
							s-2.547-1.138-2.547-2.541C333.798,146.02,334.939,144.883,336.345,144.883z"/>
						<polygon style="fill:#252538;" points="334.339,147.285 331.931,144.883 336.411,144.883 						"/>
						<polygon style="fill:#252538;" points="358.053,147.285 355.645,144.883 360.126,144.883 						"/>
					</g>
					<g>
						<path style="fill:#54321A;" d="M330.48,140.732l4.415-1.387c0.968-0.304,1.999,0.232,2.304,1.197
							c0.305,0.965-0.233,1.994-1.2,2.298l-4.415,1.387c-0.968,0.304-1.999-0.232-2.304-1.197
							C328.975,142.065,329.512,141.036,330.48,140.732z"/>
						<path style="fill:#54321A;" d="M353.879,139.345l4.415,1.387c0.968,0.304,1.505,1.333,1.2,2.298
							c-0.305,0.965-1.336,1.501-2.304,1.197l-4.415-1.387c-0.968-0.304-1.505-1.333-1.2-2.298
							C351.88,139.576,352.912,139.041,353.879,139.345z"/>
					</g>
					<path style="fill:#D88D87;" d="M338.675,169.984c-0.094,1.148,2.057,2.26,4.806,2.486c2.748,0.225,5.053-0.523,5.148-1.67
						c0.094-1.148-2.057-2.261-4.805-2.486C341.074,168.089,338.769,168.837,338.675,169.984z"/>
					<path style="fill:#D88D87;" d="M342.074,154.989h7.711v-0.561c0-2.124-1.726-3.846-3.856-3.846l0,0
						c-2.13,0-3.856,1.722-3.856,3.846V154.989z"/>
					<path style="fill:#54321A;" d="M341.266,109.973h3.627c13.195,0,23.892,10.67,23.892,23.833v4.422h-23.969l-3.993-3.983v3.983
						h-0.323l-13.52-13.487v13.487h-9.605v-4.422C317.374,120.643,328.071,109.973,341.266,109.973z"/>
					<path style="fill:#875330;" d="M324.954,116.4c0.498-0.465,1.017-0.908,1.554-1.329l9.271,9.248v-5.452l11.55,11.522h21.207
						c0.096,0.67,0.166,1.349,0.205,2.036h-22.258l-8.663-8.643v5.452L324.954,116.4z"/>
				</g>
			</g>
			<g>
				<g>
					
						<rect x="402.591" y="252.508" transform="matrix(0.3711 0.9286 -0.9286 0.3711 502.8391 -222.2631)" style="fill:#EDCB3A;" width="25.848" height="15.208"/>
					
						<rect x="376.497" y="262.937" transform="matrix(0.3711 0.9286 -0.9286 0.3711 496.1143 -191.4738)" style="fill:#EDCB3A;" width="25.848" height="15.208"/>
					
						<rect x="406.672" y="246.483" transform="matrix(0.3711 0.9286 -0.9286 0.3711 495.7299 -223.816)" style="fill:#FF8B0D;" width="12.87" height="15.208"/>
					
						<rect x="380.578" y="256.912" transform="matrix(0.3711 0.9286 -0.9286 0.3711 489.0058 -193.0265)" style="fill:#FF8B0D;" width="12.87" height="15.208"/>
					
						<rect x="284.184" y="262.451" transform="matrix(0.9286 -0.3711 0.3711 0.9286 -74.6079 152.4085)" style="fill:#EDCB3A;" width="149.018" height="15.208"/>
					
						<rect x="285.143" y="270.322" transform="matrix(0.9286 -0.3711 0.3711 0.9286 -75.4301 152.9357)" style="fill:#FF8B0D;" width="149.018" height="4.267"/>
					
						<ellipse transform="matrix(0.9711 -0.2389 0.2389 0.9711 -60.7352 81.423)" style="fill:#FF8B0D;" cx="305.563" cy="291.29" rx="33.259" ry="33.259"/>
					
						<ellipse transform="matrix(0.3825 -0.9239 0.9239 0.3825 -80.4592 462.185)" style="fill:#EDCB3A;" cx="305.563" cy="291.29" rx="25.279" ry="25.279"/>
				</g>
				<g>
					<path style="fill:#FFFFFF;" d="M322.153,290.879c-0.002-0.061-0.004-0.121-0.005-0.182c-0.002-0.1-0.004-0.195-0.012-0.281
						l-0.056-0.738l-0.029-0.237c-0.148-1.269-0.44-2.523-0.869-3.725c-0.882-2.431-2.317-4.635-4.157-6.382
						c-0.501-0.49-1.043-0.925-1.457-1.247c-0.082-0.063-0.166-0.122-0.25-0.182c-0.046-0.032-0.091-0.065-0.136-0.098
						c-0.048-0.034-0.096-0.068-0.144-0.103c-0.082-0.06-0.16-0.116-0.242-0.168l-0.489-0.317c-0.039-0.026-0.079-0.052-0.119-0.076
						l-0.212-0.124c-1.138-0.671-2.318-1.196-3.505-1.562c-1.613-0.497-3.285-0.748-4.968-0.748c-0.885,0-1.771,0.071-2.636,0.211
						c-1.249,0.199-2.492,0.547-3.691,1.035c-1.177,0.486-2.304,1.112-3.349,1.861c-2.091,1.502-3.813,3.482-4.982,5.729
						c-1.169,2.196-1.819,4.725-1.881,7.311c-0.026,1.282,0.108,2.541,0.398,3.742c0.296,1.23,0.747,2.4,1.342,3.478
						c0.594,1.083,1.329,2.072,2.19,2.944l0.072,0.074l0.137,0.128c-0.052-0.087-0.103-0.174-0.152-0.262
						c-0.592-1.039-1.089-2.128-1.476-3.239c-0.767-2.2-1.099-4.492-0.987-6.813c0.058-1.147,0.244-2.285,0.553-3.382
						c0.031-0.125,0.068-0.239,0.104-0.35l0.157-0.486c0.03-0.084,0.062-0.167,0.093-0.25c0.018-0.048,0.059-0.155,0.059-0.155
						c0.016-0.041,0.031-0.083,0.047-0.124c0.032-0.086,0.067-0.183,0.113-0.283c0,0,0.179-0.416,0.188-0.436
						c0.021-0.049,0.042-0.099,0.067-0.15l0.276-0.565c0.042-0.082,0.087-0.163,0.132-0.244c0.024-0.043,0.048-0.085,0.07-0.127
						c0.283-0.528,0.618-1.029,0.909-1.448l0.007-0.009c0.053-0.074,0.108-0.146,0.163-0.218c0.03-0.039,0.06-0.079,0.09-0.119
						l0.007-0.009c0.026-0.034,0.052-0.068,0.077-0.103c0.057-0.077,0.121-0.164,0.19-0.242c0.053-0.062,0.105-0.125,0.157-0.188
						c0.124-0.15,0.252-0.305,0.397-0.456l0.28-0.308l0.296-0.296c0.153-0.16,0.312-0.303,0.466-0.442
						c0.05-0.046,0.101-0.091,0.151-0.137c0.087-0.082,0.172-0.153,0.255-0.22c0.027-0.022,0.411-0.339,0.411-0.339l0.393-0.294
						c0.095-0.072,0.194-0.146,0.305-0.218c0.948-0.653,1.951-1.194,2.985-1.611c1.037-0.411,2.139-0.71,3.275-0.888
						c0.021-0.003,0.043-0.007,0.064-0.011c0.052-0.009,0.104-0.018,0.162-0.025l0.625-0.072c0.227-0.02,0.454-0.034,0.674-0.048
						l0.172-0.011l0.429-0.007c0.039,0,0.078-0.001,0.118-0.002c0.054-0.001,0.108-0.002,0.162-0.002
						c0.054,0,0.107,0.001,0.161,0.004l0.622,0.021l0.212,0.018c1.135,0.083,2.257,0.293,3.338,0.624
						c2.198,0.689,4.212,1.868,5.823,3.408c0.838,0.792,1.576,1.668,2.191,2.603c0.638,0.964,1.159,1.983,1.551,3.031
						c0.394,1.067,0.666,2.18,0.81,3.302l0.03,0.219l0.054,0.621c0.012,0.11,0.015,0.215,0.017,0.307
						c0.001,0.044,0.002,0.087,0.005,0.14l0.016,0.427l0,0.016c-0.001,0.087-0.002,0.174-0.003,0.26
						c-0.002,0.187-0.004,0.381-0.012,0.576l-0.041,0.63c-0.004,0.055-0.01,0.109-0.017,0.164c-0.003,0.021-0.005,0.042-0.007,0.063
						c-0.118,1.132-0.367,2.254-0.739,3.334c-0.363,1.052-0.863,2.087-1.487,3.075c-0.106,0.178-0.22,0.341-0.331,0.499
						c-0.048,0.069-0.097,0.138-0.139,0.201c-0.063,0.096-0.13,0.182-0.19,0.258c-0.026,0.033-0.052,0.067-0.083,0.108l-0.252,0.328
						l-0.014,0.018c-0.327,0.392-0.72,0.849-1.152,1.264c-0.854,0.837-1.764,1.549-2.702,2.116
						c-0.984,0.601-2.032,1.087-3.116,1.444c-1.076,0.35-2.206,0.578-3.357,0.677c-0.244,0.027-0.482,0.035-0.713,0.043
						l-0.354,0.014c0,0-0.132,0.002-0.165,0.002c-0.026,0-0.051,0-0.074-0.001l-0.02-0.001c-0.035-0.002-0.071-0.003-0.107-0.003
						c-0.08-0.001-0.17-0.003-0.268-0.016l-0.18-0.016l-0.184-0.029l-0.105-0.016l-0.099-0.022l-0.186-0.04l-0.178-0.05
						l-0.103-0.028l-0.096-0.034l-0.179-0.062l-0.179-0.075c-0.961-0.412-1.773-1.14-2.285-2.048
						c-0.518-0.909-0.727-1.974-0.59-3.001l0.002-0.016c0.039-0.237,0.083-0.49,0.165-0.745c0.026-0.092,0.064-0.209,0.105-0.332
						l4.46-13.472l0.606,1.952c0.049,0.157,0.098,0.314,0.144,0.465c0.058,0.182,0.116,0.363,0.174,0.545
						c0.113,0.354,0.229,0.719,0.348,1.078c0.661,2.019,1.394,4.122,2.24,6.429c0.18,0.489,0.362,0.977,0.546,1.465l0.647,1.72
						l-1.51-1.047c-0.217-0.151-0.415-0.281-0.605-0.398c-0.525-0.323-1.024-0.58-1.526-0.784c0,0-0.012-0.005-0.013-0.005
						l0.012,0.015c0.232,0.294,0.46,0.592,0.68,0.88c0.118,0.154,0.235,0.308,0.354,0.461l2.256,2.931l0.022,0.026l0.048,0.053
						c0.028,0.028,0.057,0.055,0.086,0.082c0.062,0.053,0.128,0.102,0.196,0.143c0.141,0.086,0.295,0.147,0.461,0.181
						c0.093,0.02,0.19,0.03,0.289,0.03c0.239,0,0.473-0.057,0.681-0.167c0.297-0.154,0.541-0.42,0.673-0.733
						c0.133-0.311,0.154-0.675,0.054-1.003l-0.133-0.449l-0.244-0.818c-0.347-1.157-0.676-2.222-1.004-3.255
						c-0.745-2.34-1.454-4.451-2.17-6.456c-0.124-0.351-0.255-0.708-0.381-1.054c-0.067-0.182-0.133-0.364-0.197-0.539
						c-0.057-0.152-0.114-0.304-0.171-0.455c-0.14-0.374-0.284-0.76-0.432-1.137c-0.28-0.723-1.364-3.653-2.046-5.5l-6.047,18.348
						c-0.035,0.106-0.068,0.206-0.108,0.342l-0.004,0.014c-0.088,0.279-0.155,0.588-0.217,1.001
						c-0.089,0.713-0.066,1.403,0.068,2.06c0.127,0.657,0.37,1.305,0.72,1.925c0.684,1.201,1.757,2.164,3.014,2.708l0.246,0.103
						l0.247,0.087l0.119,0.041l0.117,0.034l0.256,0.072l0.255,0.057l0.123,0.026l0.121,0.019l0.262,0.04l0.274,0.027
						c0.107,0.012,0.223,0.016,0.346,0.019c0.054,0.001,0.109,0.003,0.163,0.005c0.027,0,0.052,0.001,0.077,0.001l0.144-0.001
						l0.368-0.012c0.282-0.009,0.549-0.018,0.813-0.046l0.013-0.001c1.277-0.105,2.532-0.355,3.726-0.741
						c1.207-0.396,2.372-0.928,3.465-1.582c1.049-0.623,2.062-1.403,3.014-2.321c0.501-0.475,0.953-0.995,1.291-1.395
						c0.066-0.082,0.131-0.165,0.196-0.248l0.095-0.122c0.034-0.045,0.069-0.089,0.104-0.134c0.064-0.081,0.125-0.158,0.179-0.239
						c0.055-0.079,0.11-0.156,0.166-0.234c0.134-0.189,0.261-0.367,0.373-0.55l0.007-0.012c0.712-1.108,1.283-2.256,1.697-3.413
						c0.43-1.202,0.721-2.454,0.868-3.72c0.004-0.032,0.008-0.063,0.012-0.095c0.006-0.044,0.012-0.087,0.015-0.129l0.019-0.246
						l0.037-0.487c0.013-0.241,0.018-0.49,0.023-0.731l0.005-0.221L322.153,290.879z"/>
				</g>
			</g>
			<g>
				<path style="fill:none;stroke:#FFB692;stroke-width:9;stroke-miterlimit:10;" d="M316.314,195.711
					c-49.169,63.308,28.49,75.744,28.49,75.744"/>
				<g>
					<g>
						<path style="fill:#FFB692;" d="M336.827,268.994c-1.164-8.049,10.655-7.607,10.655-7.607l6.676-4.865
							c0,0,4.075,6.134-2.691,9.083c0,0,6.898,2.542,12.18,1.014c6.447-1.866,1.566,13.192-4.123,16.943
							c-3.09,2.037-7.056-1.784-11.742-1.76C341.252,281.836,332.754,277.552,336.827,268.994z"/>
					</g>
					<g>
						<path style="fill:#D88D87;" d="M350.713,274.075l-0.205,0.564c0,0,7.073,3.598,13.696,3.132
							c0.169-0.322,0.333-0.646,0.489-0.975C362.053,277.231,357.192,277.279,350.713,274.075z"/>
						<path style="fill:#D88D87;" d="M349.503,278.353c0,0,6.344,3.313,11.659,3.803c0.252-0.265,0.5-0.55,0.743-0.848
							c-2.27-0.162-6.833-0.84-12.196-3.564L349.503,278.353z"/>
						<path style="fill:#D88D87;" d="M351.802,270.119c0,0,7.1,3.89,14.597,1.8c0.109-0.498,0.189-0.977,0.241-1.433
							c-2.905,0.903-8.143,1.736-14.674-0.746L351.802,270.119z"/>
					</g>
				</g>
				<path style="fill:#83A9FF;" d="M313.051,217.143l12.464-14.958c3.292-4.368,2.42-10.578-1.948-13.87h0
					c-4.368-3.292-10.578-2.42-13.87,1.948l-12.464,14.958L313.051,217.143z"/>
			</g>
		</g>
		<g>
			<g>
				<path style="fill:#83A9FF;" d="M385.174,387.963l-11.192,7.164c-2.829,1.811-3.658,5.587-1.846,8.416l2.438,3.808
					c1.811,2.829,5.587,3.658,8.416,1.846l11.191-7.164c2.829-1.811,3.658-5.587,1.847-8.416l-2.438-3.808
					C391.779,386.98,388.003,386.151,385.174,387.963z M392.988,395.563c0.738,1.153,0.4,2.693-0.753,3.431l-11.192,7.164
					c-1.153,0.738-2.693,0.4-3.431-0.753l-2.438-3.808c-0.738-1.153-0.4-2.693,0.753-3.431l11.191-7.164
					c1.153-0.738,2.693-0.4,3.431,0.753L392.988,395.563z"/>
				<path style="fill:#83A9FF;" d="M397.548,366.959l-5.385,12.148c-1.361,3.071,0.03,6.677,3.101,8.039l4.134,1.832
					c3.071,1.361,6.678-0.03,8.039-3.101l5.385-12.148c1.361-3.071-0.03-6.677-3.101-8.039l-4.134-1.832
					C402.515,362.497,398.909,363.888,397.548,366.959z M408.258,368.99c1.252,0.555,1.819,2.025,1.264,3.277l-5.385,12.148
					c-0.555,1.252-2.025,1.819-3.277,1.264l-4.134-1.832c-1.252-0.555-1.819-2.025-1.264-3.277l5.385-12.148
					c0.555-1.252,2.025-1.819,3.277-1.264L408.258,368.99z"/>
				<path style="fill:#83A9FF;" d="M405.097,338.842l-3.061,12.931c-0.774,3.269,1.256,6.558,4.525,7.332l4.4,1.042
					c3.269,0.774,6.558-1.256,7.332-4.525l3.061-12.931c0.774-3.269-1.256-6.558-4.525-7.332l-4.4-1.042
					C409.16,333.544,405.871,335.573,405.097,338.842z M415.998,338.871c1.332,0.315,2.16,1.657,1.845,2.989l-3.061,12.931
					c-0.315,1.332-1.657,2.16-2.989,1.845l-4.4-1.042c-1.332-0.315-2.16-1.657-1.845-2.989l3.061-12.931
					c0.315-1.332,1.657-2.16,2.989-1.845L415.998,338.871z"/>
				<path style="fill:#83A9FF;" d="M430.015,313.905l-10.896,7.607c-2.755,1.923-3.431,5.728-1.508,8.483l2.588,3.707
					c1.923,2.755,5.729,3.431,8.483,1.508l10.896-7.607c2.755-1.923,3.431-5.728,1.508-8.483l-2.588-3.708
					C436.575,312.659,432.77,311.982,430.015,313.905z M438.127,321.186c0.784,1.123,0.508,2.674-0.615,3.458l-10.896,7.607
					c-1.123,0.784-2.674,0.508-3.458-0.615l-2.588-3.707c-0.784-1.123-0.508-2.674,0.615-3.458l10.896-7.607
					c1.123-0.784,2.675-0.508,3.458,0.615L438.127,321.186z"/>
				<path style="fill:#0E5EA0;" d="M390.466,396.199L390.466,396.199c-1.09-0.778-1.342-2.292-0.564-3.382l6.749-9.451
					c0.778-1.09,2.292-1.342,3.382-0.564l0,0c1.09,0.778,1.342,2.292,0.564,3.382l-6.749,9.451
					C393.07,396.725,391.556,396.977,390.466,396.199z"/>
				<path style="fill:#0E5EA0;" d="M406.017,369.883L406.017,369.883c-1.302-0.31-2.107-1.618-1.797-2.92l2.691-11.297
					c0.31-1.302,1.618-2.107,2.92-1.796v0c1.302,0.31,2.107,1.618,1.797,2.92l-2.691,11.297
					C408.627,369.389,407.319,370.193,406.017,369.883z"/>
				<path style="fill:#0E5EA0;" d="M412.522,340.346L412.522,340.346c-1.007-0.882-1.109-2.414-0.227-3.421l7.65-8.738
					c0.882-1.007,2.414-1.109,3.421-0.227h0c1.007,0.882,1.109,2.413,0.227,3.421l-7.65,8.738
					C415.061,341.126,413.529,341.228,412.522,340.346z"/>
				<path style="fill:#0E5EA0;" d="M434.454,320.674L434.454,320.674c-0.416-1.273,0.278-2.641,1.551-3.058l11.038-3.609
					c1.273-0.416,2.641,0.278,3.058,1.551l0,0c0.416,1.273-0.278,2.641-1.551,3.058l-11.038,3.609
					C436.239,322.641,434.87,321.947,434.454,320.674z"/>
				<path style="fill:#0E5EA0;" d="M364.452,410.138L364.452,410.138c-0.669-1.16-0.272-2.642,0.887-3.312l10.057-5.806
					c1.16-0.669,2.642-0.272,3.312,0.887l0,0c0.669,1.159,0.272,2.642-0.887,3.312l-10.057,5.807
					C366.604,411.695,365.122,411.297,364.452,410.138z"/>
			</g>
			<g>
				<path style="fill:#FFFFFF;" d="M507.41,250.148c-30.707,0-55.689,24.982-55.689,55.689v55.689H563.1v-55.689
					C563.1,275.13,538.118,250.148,507.41,250.148z M548.1,346.527h-81.379v-40.689c0-22.436,18.253-40.689,40.689-40.689
					s40.689,18.253,40.689,40.689V346.527z"/>
				<path style="fill:#FF8B0D;" d="M554.197,448.695h-73.774c-12.825,0-23.222-10.397-23.222-23.222v-96.996h120.217v96.996
					C577.418,438.298,567.022,448.695,554.197,448.695z"/>
				<path style="fill:#EDCB3A;" d="M537.017,448.695h-73.774c-12.825,0-23.222-10.397-23.222-23.222v-96.996h120.217v96.996
					C560.238,438.298,549.842,448.695,537.017,448.695z"/>
				<g>
					<circle style="fill:#1D3244;" cx="500.13" cy="388.274" r="12.01"/>
					<rect x="495.019" y="387.227" style="fill:#1D3244;" width="10.222" height="26.222"/>
				</g>
				<g>
					<g>
						<path style="fill:#FF8B0D;" d="M500.161,366.043l-12.857-22.27h25.715L500.161,366.043z M491.132,345.983l9.029,15.639
							l9.029-15.639H491.132z"/>
					</g>
					<g>
						<path style="fill:#FF8B0D;" d="M513.019,358.59h-25.715l12.857-22.27L513.019,358.59z M491.132,356.379h18.058l-9.029-15.639
							L491.132,356.379z"/>
					</g>
				</g>
				<g>
					<path style="fill:#FF8B0D;" d="M530.552,351.181c0-6.131,4.97-11.101,11.101-11.101c1.809,0,3.516,0.436,5.025,1.203
						c-2.306-2.009-5.318-3.229-8.617-3.229c-7.25,0-13.127,5.877-13.127,13.127c0,7.25,5.877,13.127,13.127,13.127
						c3.299,0,6.311-1.22,8.617-3.229c-1.509,0.768-3.216,1.203-5.025,1.203C535.522,362.282,530.552,357.312,530.552,351.181z"/>
					<polygon style="fill:#FF8B0D;" points="550.725,350.033 547.561,349.968 546.522,346.979 545.482,349.968 542.318,350.033 
						544.84,351.945 543.924,354.974 546.522,353.166 549.119,354.974 548.203,351.945 					"/>
				</g>
				<polygon style="fill:#FF8B0D;" points="469.516,343.677 461.678,343.677 461.678,335.928 457.9,335.928 457.9,343.677 
					450.062,343.677 450.062,347.454 457.9,347.454 457.9,366.435 461.678,366.435 461.678,347.454 469.516,347.454 				"/>
			</g>
			<g>
				<rect x="343.78" y="403.227" style="fill:#83A9FF;" width="24.235" height="14.519"/>
				<rect x="346.069" y="403.227" style="fill:#0E5EA0;" width="10.518" height="14.519"/>
			</g>
			<g>
				<rect x="447.048" y="309.316" style="fill:#83A9FF;" width="24.235" height="14.519"/>
				<rect x="449.338" y="309.316" style="fill:#0E5EA0;" width="10.518" height="14.519"/>
			</g>
		</g>
	</g>
</g>
</svg>
